<svg width="85" height="85" viewBox="0 0 85 85" fill="none" xmlns="http://www.w3.org/2000/svg">
<path d="M42.5004 53.125C49.0396 53.1251 55.4081 54.6898 60.7504 57.5918L60.7504 60.75L49.5834 60.75C47.9267 60.75 46.5836 62.0933 46.5834 63.75C46.5836 65.4067 47.9267 66.75 49.5834 66.75L60.7504 66.75L60.7504 74.1123L50.6606 76.2158C45.2779 77.3376 39.7219 77.3376 34.3393 76.2158L12.8227 71.7314C12.233 71.6086 11.8828 70.9954 12.1098 70.4375C14.0762 65.6036 17.9064 61.3453 23.0961 58.248C28.6628 54.9259 35.4838 53.125 42.5004 53.125ZM70.9565 66.75C71.7235 67.9325 72.3722 69.1645 72.89 70.4375C73.1169 70.9952 72.7675 71.6083 72.1781 71.7314L66.7504 72.8623L66.7504 66.75L70.9565 66.75Z" fill="#F5F5F5"/>
<path d="M63.75 49.5833L63.75 77.9167" stroke="#F5F5F5" stroke-width="2.5" stroke-linecap="round"/>
<path d="M77.9167 63.75L49.5834 63.75" stroke="#F5F5F5" stroke-width="2.5" stroke-linecap="round"/>
<circle cx="42.5" cy="28.3333" r="17.7083" fill="#F5F5F5"/>
</svg>
