<svg width="69" height="60" viewBox="0 0 69 60" fill="none" xmlns="http://www.w3.org/2000/svg">
<path d="M29.2019 29.4182C28.9331 29.7746 28.9333 30.2659 29.2019 30.6223L37.849 42.0876C38.0586 42.3656 38.1634 42.5045 38.1777 42.6431C38.1902 42.7646 38.1578 42.8865 38.0866 42.9858C38.0053 43.099 37.8454 43.1676 37.5254 43.3047L1.34253 58.8118C0.79237 59.0475 0.51701 59.1657 0.341557 59.1116C0.189404 59.0645 0.0684321 58.9476 0.0163615 58.7971C-0.0435216 58.6236 0.0650523 58.3442 0.281987 57.7864L11.1453 29.8528C11.187 29.7456 11.2083 29.6912 11.2166 29.636C11.2238 29.5871 11.2238 29.5374 11.2166 29.4885C11.2083 29.4333 11.1869 29.3798 11.1453 29.2727L0.281987 1.33813C0.0650065 0.780196 -0.0436665 0.500921 0.0163615 0.327393C0.0684703 0.176898 0.189389 0.0599279 0.341557 0.0129395C0.516995 -0.041155 0.792454 0.0769955 1.34253 0.312744L38.0479 16.0425C38.3678 16.1796 38.5278 16.2482 38.609 16.3614C38.6802 16.4607 38.7126 16.5825 38.7001 16.704C38.6859 16.8427 38.5811 16.9816 38.3715 17.2595L29.2019 29.4182ZM68.7693 29.3372C68.8405 29.4786 68.8404 29.6459 68.7693 29.7874C68.6873 29.9503 68.4164 30.0664 67.8757 30.2981L40.9344 41.8441C40.7285 41.9324 40.6255 41.9765 40.5244 41.9771C40.4352 41.9777 40.3476 41.9543 40.2704 41.9096C40.183 41.8589 40.1156 41.7694 39.9806 41.5905L31.617 30.5015C31.4868 30.3288 31.4216 30.2425 31.3965 30.1476C31.3744 30.0638 31.3744 29.9757 31.3965 29.892C31.4216 29.7971 31.4868 29.7107 31.617 29.538L40.6189 17.6028C40.6424 17.5716 40.6542 17.556 40.6656 17.5428C40.7998 17.3886 41.0143 17.3316 41.2073 17.3988C41.2238 17.4046 41.2417 17.4123 41.2776 17.4277L67.8757 28.8274C68.4162 29.059 68.6872 29.1744 68.7693 29.3372Z" fill="#00FFFF"/>
</svg>
