<svg width="346" height="562" viewBox="0 0 346 562" fill="none" xmlns="http://www.w3.org/2000/svg">
<g clip-path="url(#clip0_16_58)">
<path d="M342.14 2.5L266.925 559.5H2.86035L78.0752 2.5H342.14Z" fill="#0B1E2E" stroke="#00FFFF" stroke-width="5"/>
<mask id="path-2-inside-1_16_58" fill="white">
<path d="M66 51H171V105H66V51Z"/>
</mask>
<path d="M171 105V100H66V105V110H171V105Z" fill="#0080FF" mask="url(#path-2-inside-1_16_58)"/>
<path d="M73.3146 61.2727H81.065L86.1946 75.3672H86.5462L96.31 61.2727H104.06L88.6236 82.4304L86.69 94H79.8185L81.7521 82.4304L73.3146 61.2727ZM108.259 94.4794C105.756 94.4794 103.684 93.9467 102.043 92.8814C100.402 91.8054 99.2464 90.3139 98.5752 88.407C97.9147 86.4893 97.7922 84.2575 98.2077 81.7113C98.6125 79.1971 99.4541 76.9972 100.733 75.1115C102.011 73.2259 103.636 71.761 105.606 70.717C107.577 69.6623 109.799 69.1349 112.27 69.1349C114.763 69.1349 116.83 69.6729 118.47 70.7489C120.111 71.8143 121.267 73.3058 121.938 75.2234C122.609 77.141 122.737 79.3729 122.322 81.919C121.906 84.4226 121.054 86.6172 119.765 88.5028C118.476 90.3885 116.851 91.8587 114.891 92.9134C112.931 93.9574 110.72 94.4794 108.259 94.4794ZM108.93 89.206C110.081 89.206 111.098 88.881 111.983 88.2312C112.877 87.5707 113.618 86.6758 114.204 85.5465C114.8 84.4066 115.216 83.1175 115.45 81.6793C115.685 80.2624 115.701 79.0053 115.498 77.908C115.296 76.8001 114.87 75.9265 114.22 75.2873C113.581 74.6481 112.702 74.3285 111.583 74.3285C110.432 74.3285 109.41 74.6587 108.515 75.3192C107.62 75.9691 106.88 76.864 106.294 78.0039C105.708 79.1438 105.297 80.4382 105.063 81.8871C104.839 83.2933 104.823 84.5504 105.015 85.6584C105.207 86.7557 105.628 87.6239 106.278 88.2631C106.927 88.8917 107.812 89.206 108.93 89.206ZM142.217 83.549L144.566 69.4545H151.373L147.283 94H140.747L141.482 89.5415H141.226C140.47 90.9798 139.367 92.1357 137.918 93.0092C136.469 93.8828 134.823 94.3196 132.98 94.3196C131.34 94.3196 129.955 93.9467 128.826 93.201C127.707 92.4553 126.913 91.3952 126.445 90.021C125.976 88.6467 125.896 87.0007 126.205 85.0831L128.826 69.4545H135.633L133.236 83.8686C133.012 85.3175 133.215 86.4627 133.843 87.3043C134.472 88.146 135.431 88.5668 136.72 88.5668C137.54 88.5668 138.334 88.3803 139.101 88.0075C139.878 87.6239 140.55 87.0593 141.114 86.3136C141.679 85.5678 142.046 84.6463 142.217 83.549ZM152.728 94L156.819 69.4545H163.419L162.699 73.7372H162.955C163.658 72.2138 164.601 71.0632 165.784 70.2855C166.977 69.4972 168.26 69.103 169.635 69.103C169.976 69.103 170.333 69.1243 170.705 69.1669C171.089 69.1989 171.43 69.2521 171.728 69.3267L170.705 75.3832C170.407 75.2766 169.981 75.1914 169.427 75.1275C168.884 75.0529 168.367 75.0156 167.877 75.0156C166.886 75.0156 165.965 75.234 165.112 75.6708C164.26 76.0969 163.541 76.6935 162.955 77.4606C162.38 78.2276 162.002 79.1119 161.82 80.1133L159.535 94H152.728Z" fill="white"/>
<mask id="path-5-inside-2_16_58" fill="white">
<path d="M167 100H324V147H167V100Z"/>
</mask>
<path d="M167 147H162V152H167V147ZM324 147V142H167V147V152H324V147ZM167 147H172V100H167H162V147H167Z" fill="#0080FF" mask="url(#path-5-inside-2_16_58)"/>
<path d="M188.623 102.273L192.427 127.138H192.73L204.763 102.273H212.434L195.719 135H186.802L180.937 102.273H188.623ZM210.812 135L214.903 110.455H221.71L217.619 135H210.812ZM219.01 107.259C217.998 107.259 217.161 106.923 216.501 106.252C215.851 105.57 215.585 104.76 215.702 103.823C215.819 102.864 216.277 102.054 217.076 101.394C217.875 100.723 218.781 100.387 219.793 100.387C220.805 100.387 221.63 100.723 222.27 101.394C222.909 102.054 223.175 102.864 223.069 103.823C222.962 104.76 222.509 105.57 221.71 106.252C220.922 106.923 220.022 107.259 219.01 107.259ZM246.388 117.454L240.203 117.837C240.171 117.294 240.022 116.809 239.756 116.383C239.5 115.946 239.122 115.6 238.621 115.344C238.131 115.089 237.513 114.961 236.767 114.961C235.649 114.961 234.653 115.217 233.779 115.728C232.906 116.239 232.41 116.895 232.293 117.694C232.197 118.205 232.33 118.636 232.693 118.988C233.055 119.339 233.785 119.638 234.882 119.883L239.196 120.778C241.498 121.268 243.16 122.083 244.182 123.223C245.216 124.363 245.583 125.854 245.285 127.697C245.019 129.263 244.331 130.632 243.223 131.804C242.116 132.965 240.709 133.871 239.005 134.521C237.3 135.16 235.409 135.479 233.332 135.479C229.997 135.479 227.462 134.798 225.725 133.434C223.989 132.07 223.152 130.222 223.216 127.889L229.864 127.537C229.917 128.539 230.269 129.295 230.919 129.806C231.569 130.307 232.458 130.563 233.587 130.574C234.855 130.595 235.931 130.334 236.815 129.79C237.71 129.237 238.216 128.565 238.334 127.777C238.419 127.223 238.259 126.776 237.854 126.435C237.46 126.094 236.736 125.811 235.681 125.588L231.59 124.741C229.267 124.261 227.6 123.404 226.588 122.168C225.576 120.932 225.23 119.361 225.549 117.454C225.805 115.93 226.439 114.625 227.451 113.539C228.474 112.441 229.79 111.6 231.398 111.014C233.017 110.428 234.845 110.135 236.879 110.135C240.065 110.135 242.462 110.79 244.07 112.1C245.69 113.411 246.462 115.195 246.388 117.454ZM248.341 135L252.432 110.455H259.24L255.149 135H248.341ZM256.539 107.259C255.527 107.259 254.691 106.923 254.03 106.252C253.38 105.57 253.114 104.76 253.231 103.823C253.348 102.864 253.806 102.054 254.605 101.394C255.404 100.723 256.31 100.387 257.322 100.387C258.334 100.387 259.16 100.723 259.799 101.394C260.438 102.054 260.704 102.864 260.598 103.823C260.491 104.76 260.039 105.57 259.24 106.252C258.451 106.923 257.551 107.259 256.539 107.259ZM271.724 135.479C269.22 135.479 267.148 134.947 265.508 133.881C263.867 132.805 262.711 131.314 262.04 129.407C261.38 127.489 261.257 125.257 261.672 122.711C262.077 120.197 262.919 117.997 264.197 116.112C265.476 114.226 267.1 112.761 269.071 111.717C271.042 110.662 273.263 110.135 275.735 110.135C278.228 110.135 280.295 110.673 281.935 111.749C283.576 112.814 284.732 114.306 285.403 116.223C286.074 118.141 286.202 120.373 285.786 122.919C285.371 125.423 284.519 127.617 283.23 129.503C281.941 131.388 280.316 132.859 278.356 133.913C276.396 134.957 274.185 135.479 271.724 135.479ZM272.395 130.206C273.546 130.206 274.563 129.881 275.447 129.231C276.342 128.571 277.083 127.676 277.669 126.547C278.265 125.407 278.681 124.118 278.915 122.679C279.149 121.262 279.165 120.005 278.963 118.908C278.761 117.8 278.334 116.926 277.685 116.287C277.045 115.648 276.166 115.328 275.048 115.328C273.897 115.328 272.875 115.659 271.98 116.319C271.085 116.969 270.344 117.864 269.758 119.004C269.172 120.144 268.762 121.438 268.528 122.887C268.304 124.293 268.288 125.55 268.48 126.658C268.672 127.756 269.093 128.624 269.742 129.263C270.392 129.892 271.277 130.206 272.395 130.206ZM297.404 120.81L295.039 135H288.247L292.338 110.455H298.81L298.107 114.785H298.379C299.157 113.347 300.254 112.212 301.671 111.381C303.098 110.55 304.723 110.135 306.545 110.135C308.249 110.135 309.671 110.508 310.811 111.254C311.962 111.999 312.772 113.059 313.24 114.434C313.72 115.808 313.8 117.454 313.48 119.371L310.859 135H304.052L306.465 120.586C306.71 119.084 306.518 117.912 305.889 117.07C305.272 116.218 304.275 115.792 302.901 115.792C301.985 115.792 301.143 115.989 300.376 116.383C299.609 116.777 298.965 117.353 298.443 118.109C297.931 118.855 297.585 119.755 297.404 120.81Z" fill="white"/>
<mask id="path-8-inside-3_16_58" fill="white">
<path d="M51 147H155V207H51V147Z"/>
</mask>
<path d="M155 207V202H51V207V212H155V207Z" fill="#0080FF" mask="url(#path-8-inside-3_16_58)"/>
<path d="M74.2322 158.273H82.7656L88.1509 180.261H88.5344L101.175 158.273H109.708L104.275 191H97.5632L101.111 169.699H100.823L88.87 190.84H84.2837L79.3619 169.619H79.0902L75.5107 191H68.799L74.2322 158.273ZM112.549 200.205C111.675 200.205 110.876 200.135 110.152 199.997C109.427 199.869 108.831 199.704 108.362 199.501L110.759 194.42C111.515 194.665 112.202 194.793 112.82 194.803C113.449 194.814 114.024 194.654 114.546 194.324C115.068 193.994 115.547 193.45 115.984 192.694L116.592 191.655L111.989 166.455H118.893L120.97 184.512H121.226L129.36 166.455H136.822L122.776 193.653C122.083 194.984 121.263 196.14 120.315 197.12C119.377 198.1 118.264 198.857 116.975 199.39C115.697 199.933 114.221 200.205 112.549 200.205Z" fill="white"/>
<mask id="path-11-inside-4_16_58" fill="white">
<path d="M155 202H312V253H155V202Z"/>
</mask>
<path d="M155 253H150V258H155V253ZM312 253V248H155V253V258H312V253ZM155 253H160V202H155H150V253H155Z" fill="#0080FF" mask="url(#path-11-inside-4_16_58)"/>
<path d="M208.684 219.73H201.78C201.801 218.814 201.684 218.005 201.429 217.301C201.173 216.588 200.789 215.98 200.278 215.48C199.777 214.979 199.165 214.601 198.44 214.345C197.716 214.079 196.901 213.946 195.995 213.946C194.248 213.946 192.645 214.382 191.185 215.256C189.726 216.13 188.495 217.397 187.494 219.059C186.492 220.711 185.8 222.708 185.416 225.052C185.044 227.31 185.065 229.201 185.48 230.725C185.896 232.248 186.631 233.399 187.686 234.176C188.751 234.944 190.077 235.327 191.665 235.327C192.645 235.327 193.577 235.205 194.461 234.96C195.345 234.704 196.15 234.342 196.874 233.873C197.609 233.393 198.248 232.813 198.792 232.131C199.346 231.449 199.777 230.677 200.086 229.814H207.038C206.601 231.316 205.919 232.765 204.992 234.161C204.076 235.556 202.941 236.803 201.588 237.9C200.235 238.987 198.696 239.849 196.97 240.489C195.244 241.128 193.353 241.447 191.297 241.447C188.325 241.447 185.773 240.766 183.643 239.402C181.523 238.038 179.994 236.073 179.056 233.505C178.119 230.938 177.943 227.843 178.529 224.221C179.115 220.716 180.26 217.744 181.965 215.304C183.68 212.854 185.763 210.995 188.213 209.727C190.674 208.459 193.305 207.825 196.107 207.825C198.057 207.825 199.82 208.092 201.397 208.624C202.973 209.157 204.316 209.935 205.424 210.957C206.542 211.969 207.384 213.211 207.948 214.681C208.513 216.151 208.758 217.834 208.684 219.73ZM221.14 241.479C218.636 241.479 216.564 240.947 214.924 239.881C213.283 238.805 212.127 237.314 211.456 235.407C210.796 233.489 210.673 231.257 211.089 228.711C211.493 226.197 212.335 223.997 213.613 222.112C214.892 220.226 216.516 218.761 218.487 217.717C220.458 216.662 222.679 216.135 225.151 216.135C227.644 216.135 229.711 216.673 231.351 217.749C232.992 218.814 234.148 220.306 234.819 222.223C235.49 224.141 235.618 226.373 235.203 228.919C234.787 231.423 233.935 233.617 232.646 235.503C231.357 237.388 229.732 238.859 227.772 239.913C225.812 240.957 223.601 241.479 221.14 241.479ZM221.811 236.206C222.962 236.206 223.979 235.881 224.863 235.231C225.758 234.571 226.499 233.676 227.085 232.547C227.681 231.407 228.097 230.118 228.331 228.679C228.565 227.262 228.581 226.005 228.379 224.908C228.177 223.8 227.75 222.926 227.101 222.287C226.461 221.648 225.582 221.328 224.464 221.328C223.313 221.328 222.291 221.659 221.396 222.319C220.501 222.969 219.76 223.864 219.174 225.004C218.589 226.144 218.178 227.438 217.944 228.887C217.72 230.293 217.704 231.55 217.896 232.658C218.088 233.756 218.509 234.624 219.158 235.263C219.808 235.892 220.693 236.206 221.811 236.206ZM246.628 241.4C244.753 241.4 243.139 240.92 241.786 239.961C240.444 238.992 239.485 237.57 238.91 235.695C238.345 233.809 238.292 231.497 238.75 228.759C239.219 225.947 240.06 223.608 241.275 221.744C242.489 219.869 243.928 218.468 245.59 217.541C247.252 216.604 248.983 216.135 250.783 216.135C252.147 216.135 253.249 216.369 254.091 216.838C254.943 217.296 255.598 217.871 256.057 218.564C256.515 219.246 256.834 219.917 257.015 220.577H257.223L259.285 208.273H266.076L260.643 241H253.931L254.586 237.069H254.299C253.873 237.751 253.308 238.427 252.605 239.098C251.912 239.759 251.071 240.308 250.08 240.744C249.1 241.181 247.949 241.4 246.628 241.4ZM249.633 235.982C250.719 235.982 251.699 235.684 252.573 235.087C253.446 234.48 254.182 233.633 254.778 232.547C255.375 231.46 255.79 230.187 256.025 228.727C256.27 227.268 256.275 226 256.041 224.924C255.806 223.848 255.348 223.017 254.666 222.431C253.995 221.845 253.106 221.552 251.998 221.552C250.879 221.552 249.888 221.856 249.025 222.463C248.173 223.07 247.465 223.912 246.9 224.988C246.346 226.064 245.952 227.31 245.717 228.727C245.483 230.155 245.467 231.417 245.669 232.515C245.872 233.601 246.303 234.453 246.964 235.071C247.624 235.679 248.514 235.982 249.633 235.982ZM277.346 241.479C274.832 241.479 272.749 240.968 271.098 239.945C269.447 238.912 268.285 237.452 267.614 235.567C266.954 233.67 266.842 231.428 267.279 228.839C267.705 226.314 268.562 224.098 269.851 222.191C271.151 220.284 272.781 218.798 274.741 217.733C276.702 216.668 278.885 216.135 281.293 216.135C282.912 216.135 284.377 216.396 285.688 216.918C287.009 217.429 288.106 218.207 288.98 219.251C289.853 220.284 290.45 221.579 290.769 223.134C291.1 224.69 291.094 226.511 290.753 228.599L290.45 230.469H269.74L270.395 226.25H284.713C284.873 225.27 284.809 224.402 284.521 223.646C284.233 222.889 283.754 222.298 283.083 221.872C282.412 221.435 281.586 221.217 280.606 221.217C279.605 221.217 278.667 221.462 277.794 221.952C276.92 222.442 276.185 223.086 275.588 223.885C275.002 224.674 274.624 225.531 274.454 226.458L273.703 230.645C273.49 231.934 273.532 233.005 273.83 233.857C274.139 234.709 274.672 235.348 275.428 235.775C276.185 236.19 277.144 236.398 278.305 236.398C279.061 236.398 279.77 236.291 280.43 236.078C281.101 235.865 281.698 235.551 282.22 235.135C282.742 234.709 283.168 234.182 283.498 233.553L289.715 233.969C289.139 235.482 288.266 236.803 287.094 237.932C285.922 239.05 284.51 239.924 282.859 240.553C281.219 241.17 279.381 241.479 277.346 241.479Z" fill="white"/>
<line y1="-2.5" x2="567.035" y2="-2.5" transform="matrix(-0.134129 0.990964 -0.998405 -0.0564606 76.0558 0)" stroke="#00FFFF" stroke-width="5"/>
<line y1="-2.5" x2="567.035" y2="-2.5" transform="matrix(-0.134159 0.99096 -0.998403 -0.0564909 340.615 0.00117493)" stroke="#00FFFF" stroke-width="5"/>
<path d="M234.202 339.418C233.933 339.775 233.933 340.266 234.202 340.622L242.849 352.088C243.059 352.366 243.163 352.505 243.178 352.643C243.19 352.765 243.158 352.887 243.087 352.986C243.005 353.099 242.845 353.168 242.525 353.305L206.343 368.812C205.792 369.048 205.517 369.166 205.342 369.112C205.189 369.065 205.068 368.948 205.016 368.797C204.956 368.624 205.065 368.344 205.282 367.786L216.145 339.853C216.187 339.746 216.208 339.691 216.217 339.636C216.224 339.587 216.224 339.537 216.217 339.489C216.208 339.433 216.187 339.38 216.145 339.273L205.282 311.338C205.065 310.78 204.956 310.501 205.016 310.327C205.068 310.177 205.189 310.06 205.342 310.013C205.517 309.959 205.792 310.077 206.343 310.313L243.048 326.043C243.368 326.18 243.528 326.248 243.609 326.361C243.68 326.461 243.713 326.583 243.7 326.704C243.686 326.843 243.581 326.982 243.371 327.26L234.202 339.418ZM273.769 339.337C273.84 339.479 273.84 339.646 273.769 339.787C273.687 339.95 273.416 340.066 272.876 340.298L245.934 351.844C245.728 351.932 245.625 351.977 245.524 351.977C245.435 351.978 245.348 351.954 245.27 351.91C245.183 351.859 245.116 351.769 244.981 351.59L236.617 340.501C236.487 340.329 236.422 340.242 236.397 340.148C236.374 340.064 236.374 339.976 236.397 339.892C236.422 339.797 236.487 339.711 236.617 339.538L245.619 327.603C245.642 327.572 245.654 327.556 245.666 327.543C245.8 327.389 246.014 327.332 246.207 327.399C246.224 327.405 246.242 327.412 246.278 327.428L272.876 338.827C273.416 339.059 273.687 339.174 273.769 339.337Z" fill="#00FFFF"/>
<path d="M93.8851 353L91.177 330.455H96.3841L97.5289 346.12H97.7161L104.42 330.455H108.879L110.398 346.153H110.596L116.915 330.455H122.122L111.928 353H107.282L105.455 338.26H105.279L98.5307 353H93.8851ZM123.804 353.319C122.732 353.319 121.804 353.132 121.018 352.758C120.24 352.376 119.668 351.811 119.301 351.062C118.934 350.314 118.842 349.386 119.026 348.277C119.187 347.338 119.492 346.553 119.94 345.922C120.395 345.283 120.949 344.769 121.602 344.38C122.255 343.991 122.978 343.694 123.771 343.489C124.57 343.283 125.396 343.144 126.247 343.07C127.231 342.968 128.031 342.868 128.647 342.773C129.271 342.678 129.737 342.542 130.045 342.366C130.354 342.182 130.541 341.911 130.607 341.551V341.485C130.717 340.795 130.588 340.259 130.222 339.878C129.862 339.489 129.286 339.294 128.493 339.294C127.657 339.294 126.945 339.478 126.358 339.845C125.778 340.212 125.363 340.678 125.114 341.243L120.842 340.891C121.224 339.863 121.8 338.975 122.571 338.227C123.349 337.471 124.284 336.891 125.378 336.487C126.471 336.076 127.697 335.871 129.055 335.871C129.994 335.871 130.871 335.981 131.686 336.201C132.508 336.421 133.216 336.762 133.81 337.225C134.412 337.687 134.845 338.282 135.109 339.008C135.381 339.727 135.436 340.59 135.274 341.595L133.37 353H128.922L129.319 350.655H129.187C128.827 351.184 128.387 351.65 127.866 352.053C127.345 352.45 126.746 352.761 126.071 352.989C125.396 353.209 124.64 353.319 123.804 353.319ZM125.686 350.083C126.369 350.083 126.996 349.947 127.568 349.675C128.148 349.397 128.625 349.022 129 348.553C129.381 348.083 129.623 347.551 129.726 346.956L130.012 345.162C129.866 345.257 129.653 345.342 129.374 345.415C129.102 345.489 128.805 345.558 128.482 345.624C128.167 345.683 127.847 345.738 127.524 345.789C127.201 345.833 126.912 345.877 126.655 345.922C126.09 346.002 125.583 346.131 125.136 346.307C124.688 346.483 124.325 346.721 124.046 347.022C123.767 347.316 123.594 347.683 123.528 348.123C123.426 348.762 123.576 349.25 123.98 349.587C124.391 349.918 124.959 350.083 125.686 350.083ZM138.263 359.341C137.661 359.341 137.111 359.293 136.612 359.198C136.113 359.11 135.702 358.996 135.379 358.857L137.03 355.356C137.551 355.525 138.025 355.613 138.45 355.62C138.883 355.627 139.28 355.517 139.639 355.29C139.999 355.062 140.329 354.688 140.63 354.167L141.048 353.451L137.878 336.091H142.634L144.065 348.531H144.241L149.844 336.091H154.985L145.309 354.827C144.832 355.745 144.267 356.541 143.613 357.216C142.968 357.891 142.201 358.413 141.313 358.779C140.432 359.154 139.415 359.341 138.263 359.341ZM170.628 340.913L166.368 341.177C166.346 340.803 166.243 340.469 166.06 340.175C165.884 339.874 165.623 339.636 165.278 339.46C164.941 339.283 164.515 339.195 164.001 339.195C163.231 339.195 162.544 339.371 161.943 339.724C161.341 340.076 160.999 340.527 160.919 341.078C160.853 341.43 160.944 341.727 161.194 341.969C161.444 342.212 161.946 342.417 162.702 342.586L165.674 343.202C167.26 343.54 168.405 344.101 169.109 344.887C169.821 345.672 170.074 346.699 169.869 347.969C169.685 349.048 169.212 349.991 168.449 350.798C167.685 351.598 166.717 352.222 165.542 352.67C164.368 353.11 163.065 353.33 161.634 353.33C159.337 353.33 157.591 352.861 156.394 351.921C155.198 350.982 154.622 349.708 154.666 348.101L159.245 347.859C159.282 348.549 159.524 349.07 159.972 349.422C160.42 349.767 161.033 349.943 161.81 349.951C162.684 349.965 163.425 349.786 164.034 349.411C164.651 349.03 164.999 348.567 165.08 348.024C165.139 347.643 165.029 347.334 164.75 347.099C164.478 346.865 163.979 346.67 163.253 346.516L160.434 345.933C158.834 345.602 157.686 345.011 156.989 344.16C156.292 343.309 156.053 342.226 156.273 340.913C156.449 339.863 156.886 338.964 157.583 338.216C158.288 337.46 159.194 336.88 160.302 336.476C161.418 336.073 162.676 335.871 164.078 335.871C166.273 335.871 167.924 336.322 169.032 337.225C170.148 338.127 170.68 339.357 170.628 340.913ZM190.961 336.091L190.378 339.614H180.184L180.778 336.091H190.961ZM183.75 332.04H188.44L185.82 347.804C185.747 348.237 185.758 348.575 185.853 348.817C185.948 349.052 186.106 349.217 186.326 349.312C186.554 349.408 186.825 349.455 187.141 349.455C187.361 349.455 187.585 349.437 187.813 349.4C188.04 349.356 188.213 349.323 188.33 349.301L188.506 352.791C188.242 352.872 187.886 352.96 187.438 353.055C186.998 353.15 186.477 353.209 185.875 353.231C184.73 353.275 183.761 353.125 182.969 352.78C182.176 352.428 181.607 351.888 181.263 351.162C180.918 350.435 180.844 349.521 181.042 348.42L183.75 332.04ZM198.678 353.33C196.953 353.33 195.526 352.963 194.396 352.229C193.265 351.488 192.469 350.461 192.007 349.147C191.552 347.826 191.467 346.288 191.754 344.534C192.033 342.802 192.612 341.287 193.493 339.988C194.374 338.689 195.493 337.68 196.851 336.961C198.208 336.234 199.738 335.871 201.441 335.871C203.158 335.871 204.582 336.241 205.712 336.983C206.843 337.717 207.639 338.744 208.101 340.065C208.564 341.386 208.652 342.924 208.366 344.678C208.079 346.402 207.492 347.914 206.604 349.213C205.716 350.512 204.597 351.525 203.247 352.251C201.896 352.971 200.373 353.33 198.678 353.33ZM199.14 349.697C199.933 349.697 200.634 349.474 201.243 349.026C201.859 348.571 202.37 347.954 202.773 347.176C203.184 346.391 203.47 345.503 203.632 344.512C203.793 343.536 203.804 342.67 203.665 341.914C203.525 341.151 203.232 340.549 202.784 340.109C202.344 339.669 201.738 339.449 200.968 339.449C200.175 339.449 199.471 339.676 198.854 340.131C198.238 340.579 197.728 341.195 197.324 341.98C196.92 342.766 196.638 343.657 196.476 344.656C196.322 345.624 196.311 346.49 196.443 347.254C196.575 348.009 196.865 348.608 197.313 349.048C197.761 349.481 198.37 349.697 199.14 349.697ZM135.62 376.348H130.864C130.879 375.717 130.798 375.159 130.622 374.674C130.446 374.183 130.182 373.764 129.829 373.419C129.484 373.074 129.062 372.814 128.563 372.638C128.064 372.454 127.503 372.363 126.879 372.363C125.675 372.363 124.571 372.663 123.565 373.265C122.56 373.867 121.712 374.74 121.023 375.885C120.333 377.023 119.856 378.399 119.591 380.013C119.335 381.569 119.349 382.872 119.635 383.922C119.922 384.971 120.428 385.764 121.155 386.299C121.889 386.828 122.802 387.092 123.896 387.092C124.571 387.092 125.213 387.008 125.822 386.839C126.431 386.663 126.985 386.413 127.485 386.09C127.991 385.76 128.431 385.36 128.806 384.89C129.187 384.421 129.484 383.888 129.697 383.294H134.486C134.185 384.329 133.715 385.327 133.077 386.288C132.446 387.25 131.664 388.108 130.732 388.864C129.8 389.613 128.739 390.207 127.551 390.648C126.362 391.088 125.059 391.308 123.643 391.308C121.595 391.308 119.837 390.839 118.369 389.899C116.909 388.96 115.856 387.606 115.21 385.837C114.564 384.068 114.443 381.936 114.847 379.441C115.25 377.027 116.039 374.979 117.214 373.298C118.395 371.61 119.83 370.33 121.518 369.456C123.213 368.583 125.026 368.146 126.956 368.146C128.299 368.146 129.514 368.33 130.6 368.697C131.686 369.064 132.611 369.599 133.374 370.304C134.145 371.001 134.724 371.856 135.113 372.869C135.502 373.882 135.671 375.041 135.62 376.348ZM144.201 391.33C142.476 391.33 141.049 390.963 139.919 390.229C138.788 389.488 137.992 388.461 137.53 387.147C137.075 385.826 136.99 384.288 137.277 382.534C137.555 380.802 138.135 379.287 139.016 377.988C139.897 376.689 141.016 375.68 142.374 374.961C143.731 374.234 145.261 373.871 146.964 373.871C148.681 373.871 150.105 374.241 151.235 374.983C152.366 375.717 153.162 376.744 153.624 378.065C154.087 379.386 154.175 380.924 153.888 382.678C153.602 384.402 153.015 385.914 152.127 387.213C151.239 388.512 150.12 389.525 148.769 390.251C147.419 390.971 145.896 391.33 144.201 391.33ZM144.663 387.697C145.456 387.697 146.157 387.474 146.766 387.026C147.382 386.571 147.892 385.954 148.296 385.176C148.707 384.391 148.993 383.503 149.155 382.512C149.316 381.536 149.327 380.67 149.188 379.914C149.048 379.151 148.755 378.549 148.307 378.109C147.867 377.669 147.261 377.449 146.491 377.449C145.698 377.449 144.994 377.676 144.377 378.131C143.761 378.579 143.251 379.195 142.847 379.98C142.443 380.766 142.161 381.657 141.999 382.656C141.845 383.624 141.834 384.49 141.966 385.254C142.098 386.009 142.388 386.608 142.836 387.048C143.284 387.481 143.893 387.697 144.663 387.697ZM161.892 381.224L160.262 391H155.584L158.402 374.091H162.86L162.376 377.074H162.563C163.099 376.083 163.855 375.302 164.831 374.729C165.814 374.157 166.934 373.871 168.189 373.871C169.363 373.871 170.343 374.128 171.128 374.641C171.92 375.155 172.478 375.885 172.801 376.832C173.131 377.779 173.186 378.913 172.966 380.234L171.161 391H166.471L168.133 381.07C168.302 380.036 168.17 379.228 167.737 378.648C167.312 378.061 166.625 377.768 165.679 377.768C165.047 377.768 164.468 377.904 163.939 378.175C163.411 378.447 162.967 378.843 162.607 379.364C162.255 379.878 162.016 380.498 161.892 381.224ZM181.176 381.224L179.547 391H174.868L177.686 374.091H182.145L181.66 377.074H181.847C182.383 376.083 183.139 375.302 184.115 374.729C185.099 374.157 186.218 373.871 187.473 373.871C188.647 373.871 189.627 374.128 190.412 374.641C191.205 375.155 191.762 375.885 192.085 376.832C192.416 377.779 192.471 378.913 192.25 380.234L190.445 391H185.755L187.418 381.07C187.586 380.036 187.454 379.228 187.021 378.648C186.596 378.061 185.909 377.768 184.963 377.768C184.332 377.768 183.752 377.904 183.223 378.175C182.695 378.447 182.251 378.843 181.891 379.364C181.539 379.878 181.301 380.498 181.176 381.224ZM201.781 391.33C200.049 391.33 198.614 390.978 197.477 390.273C196.339 389.562 195.539 388.556 195.077 387.257C194.622 385.951 194.545 384.406 194.846 382.623C195.139 380.883 195.73 379.357 196.618 378.043C197.513 376.729 198.636 375.705 199.987 374.972C201.337 374.238 202.842 373.871 204.5 373.871C205.616 373.871 206.625 374.051 207.527 374.41C208.438 374.762 209.193 375.298 209.795 376.017C210.397 376.729 210.808 377.621 211.028 378.692C211.256 379.764 211.252 381.019 211.017 382.457L210.808 383.745H196.541L196.992 380.839H206.856C206.966 380.164 206.922 379.566 206.724 379.045C206.526 378.524 206.195 378.116 205.733 377.823C205.271 377.522 204.702 377.371 204.027 377.371C203.337 377.371 202.691 377.54 202.089 377.878C201.487 378.215 200.981 378.659 200.57 379.21C200.166 379.753 199.906 380.344 199.788 380.982L199.271 383.866C199.124 384.754 199.154 385.492 199.359 386.079C199.572 386.666 199.939 387.107 200.46 387.4C200.981 387.686 201.642 387.83 202.442 387.83C202.963 387.83 203.451 387.756 203.906 387.609C204.368 387.463 204.779 387.246 205.139 386.96C205.498 386.666 205.792 386.303 206.019 385.87L210.302 386.156C209.905 387.198 209.304 388.108 208.496 388.886C207.689 389.657 206.717 390.259 205.579 390.692C204.449 391.117 203.183 391.33 201.781 391.33ZM220.273 391.33C218.533 391.33 217.102 390.963 215.979 390.229C214.864 389.488 214.082 388.461 213.634 387.147C213.194 385.833 213.117 384.321 213.403 382.612C213.682 380.879 214.266 379.36 215.154 378.054C216.042 376.74 217.168 375.717 218.533 374.983C219.906 374.241 221.447 373.871 223.157 373.871C224.632 373.871 225.88 374.139 226.9 374.674C227.92 375.21 228.668 375.962 229.145 376.931C229.623 377.9 229.784 379.037 229.63 380.344H225.215C225.223 379.507 225.006 378.828 224.566 378.307C224.126 377.786 223.48 377.526 222.628 377.526C221.895 377.526 221.219 377.724 220.603 378.12C219.994 378.509 219.476 379.078 219.051 379.826C218.632 380.575 218.339 381.481 218.17 382.545C217.994 383.624 217.99 384.542 218.159 385.298C218.328 386.054 218.651 386.63 219.128 387.026C219.605 387.422 220.207 387.62 220.933 387.62C221.476 387.62 221.979 387.51 222.441 387.29C222.911 387.07 223.322 386.751 223.674 386.332C224.027 385.907 224.298 385.397 224.489 384.802H228.914C228.613 386.101 228.067 387.239 227.274 388.215C226.489 389.191 225.502 389.954 224.313 390.505C223.124 391.055 221.777 391.33 220.273 391.33ZM242.683 374.091L242.1 377.614H231.906L232.5 374.091H242.683ZM235.473 370.04H240.162L237.542 385.804C237.469 386.237 237.48 386.575 237.575 386.817C237.671 387.052 237.828 387.217 238.049 387.312C238.276 387.408 238.548 387.455 238.863 387.455C239.083 387.455 239.307 387.437 239.535 387.4C239.762 387.356 239.935 387.323 240.052 387.301L240.228 390.791C239.964 390.872 239.608 390.96 239.16 391.055C238.72 391.15 238.199 391.209 237.597 391.231C236.452 391.275 235.484 391.125 234.691 390.78C233.898 390.428 233.33 389.888 232.985 389.162C232.64 388.435 232.566 387.521 232.765 386.42L235.473 370.04Z" fill="white"/>
<path d="M114.682 420.573C115.232 420.808 115.508 420.925 115.684 420.871C115.836 420.824 115.956 420.707 116.008 420.556C116.068 420.383 115.959 420.103 115.741 419.546L104.68 391.233C104.638 391.126 104.617 391.072 104.608 391.016C104.601 390.967 104.601 390.917 104.608 390.868C104.617 390.812 104.638 390.759 104.68 390.651L115.741 362.339C115.959 361.781 116.068 361.502 116.008 361.328C115.956 361.178 115.836 361.061 115.684 361.013C115.508 360.959 115.232 361.076 114.682 361.311L76.8352 377.457C76.5145 377.594 76.3541 377.662 76.2727 377.775C76.2013 377.875 76.1688 377.997 76.1812 378.118C76.1955 378.257 76.3005 378.396 76.5105 378.675L85.3115 390.34C85.5803 390.696 85.58 391.187 85.3115 391.544L76.5105 403.209C76.3005 403.487 76.1955 403.626 76.1812 403.765C76.1688 403.887 76.2013 404.009 76.2727 404.108C76.3541 404.221 76.5145 404.29 76.8352 404.426L114.682 420.573ZM46.0537 390.718C45.9824 390.859 45.9824 391.026 46.0537 391.168C46.1361 391.331 46.4083 391.447 46.9512 391.678L73.4243 402.972C73.6301 403.06 73.733 403.104 73.8339 403.104C73.923 403.105 74.0105 403.081 74.0875 403.036C74.1748 402.986 74.2422 402.896 74.3769 402.718L82.8964 391.423C83.0266 391.25 83.0918 391.164 83.1168 391.069C83.139 390.985 83.139 390.897 83.1168 390.813C83.0917 390.718 83.0266 390.632 82.8963 390.459L74.3769 379.166C74.2422 378.988 74.1748 378.898 74.0875 378.848C74.0105 378.803 73.923 378.78 73.834 378.78C73.733 378.781 73.6301 378.825 73.4243 378.912L46.9512 390.207C46.408 390.439 46.136 390.554 46.0537 390.718Z" fill="#00FFFF"/>
</g>
<defs>
<clipPath id="clip0_16_58">
<rect width="346" height="562" fill="white"/>
</clipPath>
</defs>
</svg>
